# xmcd
#
# Track frame offsets:
# 150
# 19446
# 35836
# 53258
# 73566
# 95049
# 108898
# 122983
# 139262
# 161556
# 179549
# 193009
#
# Disc length: 2796 seconds
#
#
# Revision: 0
# Processed by: cddbd v1.4PL0 Copyright (c) Steve Scherf et al.
# Submitted via: FreeRIP 2.12 
#
DISCID=ad0aea0c
DTITLE=Mark Reeves - Sure Is a Pretty Name
DYEAR=2003
DGENRE=
TTITLE0=The Way
TTITLE1=Better Days
TTITLE2=V Dub
TTITLE3=Sure Is a Pretty Name
TTITLE4=No Matter
TTITLE5=Put On Something Sexy
TTITLE6=Back Dirt Road
TTITLE7=Quarterback
TTITLE8=Thank You
TTITLE9=These Are The Sounds
TTITLE10=Pricilla
TTITLE11=If I Had You
EXTD=
EXTT0=
EXTT1=
EXTT2=
EXTT3=
EXTT4=
EXTT5=
EXTT6=
EXTT7=
EXTT8=
EXTT9=
EXTT10=
EXTT11=
PLAYORDER=
